# xmcd CD database file
#
# Track frame offsets:
#	150
#	18998
#	39323
#	52790
#	65838
#	84011
#	99990
#	118799
#	136367
#	154542
#	175353
#
# Disc length: 2557 seconds
#
# Revision: 1
# Processed by: cddbd v1.5.2PL0 Copyright (c) Steve Scherf et al.
# Submitted via: CDex 1.70beta2
#
DISCID=8009fb0b
DTITLE=Laura Caviani - Christmas Holiday Jazz (Disk 2)
DYEAR=2007
DGENRE=Jazz
TTITLE0=O Tannenbaum
TTITLE1=Jingle Bells
TTITLE2=The Christmas Waltz
TTITLE3=Let It Snow, Let It Snow, Let It Snow
TTITLE4=The Holly and The Ivy
TTITLE5=In Dulce Jubilo
TTITLE6=Joy To The World
TTITLE7=Hark! The Herald Angels Sing
TTITLE8=It Came Upon a Midnight Clear
TTITLE9=What Are You Doing New Year's Eve
TTITLE10=Auld Lang Syne
EXTD=YEAR: 2007
EXTT0=
EXTT1=
EXTT2=
EXTT3=
EXTT4=
EXTT5=
EXTT6=
EXTT7=
EXTT8=
EXTT9=
EXTT10=
PLAYORDER=
